<?xml version="1.0" encoding="UTF-8" standalone="no"?>
<svg
   xmlns:dc="http://purl.org/dc/elements/1.1/"
   xmlns:cc="http://creativecommons.org/ns#"
   xmlns:rdf="http://www.w3.org/1999/02/22-rdf-syntax-ns#"
   xmlns:svg="http://www.w3.org/2000/svg"
   xmlns="http://www.w3.org/2000/svg"
   xmlns:sodipodi="http://sodipodi.sourceforge.net/DTD/sodipodi-0.dtd"
   xmlns:inkscape="http://www.inkscape.org/namespaces/inkscape"
   sodipodi:docname="arrow-up.svg"
   inkscape:version="1.0 (4035a4fb49, 2020-05-01)"
   id="svg8"
   version="1.1"
   viewBox="0 0 317.35312 317.29773"
   height="317.29773mm"
   width="317.35312mm">
  <defs
     id="defs2" />
  <sodipodi:namedview
     inkscape:window-maximized="0"
     inkscape:window-y="4"
     inkscape:window-x="755"
     inkscape:window-height="1040"
     inkscape:window-width="1375"
     showgrid="false"
     inkscape:document-rotation="0"
     inkscape:current-layer="layer1"
     inkscape:document-units="mm"
     inkscape:cy="505.94977"
     inkscape:cx="701.89046"
     inkscape:zoom="0.35"
     inkscape:pageshadow="2"
     inkscape:pageopacity="0.0"
     borderopacity="1.0"
     bordercolor="#666666"
     pagecolor="#ffffff"
     id="base" />
  <metadata
     id="metadata5">
    <rdf:RDF>
      <cc:Work
         rdf:about="">
        <dc:format>image/svg+xml</dc:format>
        <dc:type
           rdf:resource="http://purl.org/dc/dcmitype/StillImage" />
        <dc:title></dc:title>
      </cc:Work>
    </rdf:RDF>
  </metadata>
  <g
     transform="translate(79.875183,-14.300789)"
     id="layer1"
     inkscape:groupmode="layer"
     inkscape:label="Layer 1">
    <path
       id="path26"
       d="m 150.92035,157.24193 71.38677,142.94115 7.5854,15.34583 7.58541,15.34583 -0.004,0.1963 -0.004,0.19629 -1.12448,-0.44057 -1.12448,-0.44058 -21.43125,-9.18751 -21.43125,-9.1875 -31.48541,-13.61761 -31.48542,-13.61761 -25.15665,-10.89447 -25.15664,-10.89448 -43.899603,19.02941 -43.8996,19.02941 -25.5323,11.0435 -25.53229,11.04351 -9.86866,4.23284 -9.86867,4.23284 -0.1742,-0.1742 -0.17421,-0.17419 36.19397,-72.41894 36.19396,-72.41893 33.0799,-65.88126 33.079897,-65.881251 10.20043,-20.17448 10.200436,-20.17447 h 0.2305 0.2305 z"
       style="fill:#000000;stroke-width:0.264583" />
  </g>
</svg>
